{
  "accessors": [
    {
      "bufferView": 2,
      "componentType": 5126,
      "count": 2561,
      "max": [
        7.4330878257751465,
        8.36801528930664,
        16.426189422607422
      ],
      "min": [
        -7.4330878257751465,
        -7.038021087646484,
        0.02148200012743473
      ],
      "type": "VEC3"
    },
    {
      "bufferView": 2,
      "byteOffset": 30732,
      "componentType": 5126,
      "count": 2561,
      "max": [
        0.9999348521232605,
        1.0,
        1.0
      ],
      "min": [
        -0.9999344944953918,
        -1.0,
        -1.0
      ],
      "type": "VEC3"
    },
    {
      "bufferView": 3,
      "componentType": 5126,
      "count": 2561,
      "max": [
        0.9999982118606567,
        0.9999769926071167,
        1.0,
        1.0
      ],
      "min": [
        -0.9990984201431274,
        -1.0,
        -0.9366538524627686,
        -1.0
      ],
      "type": "VEC4"
    },
    {
      "bufferView": 1,
      "componentType": 5126,
      "count": 2561,
      "max": [
        0.5975599884986877,
        0.9980080127716064
      ],
      "min": [
        0.001193000003695488,
        0.0019920000340789557
      ],
      "type": "VEC2"
    },
    {
      "bufferView": 0,
      "componentType": 5125,
      "count": 14976,
      "type": "SCALAR"
    },
    {
      "bufferView": 2,
      "byteOffset": 61464,
      "componentType": 5126,
      "count": 1671,
      "max": [
        7.747270107269287,
        7.747270107269287,
        17.611642837524414
      ],
      "min": [
        -7.747270107269287,
        -7.747270107269287,
        0.4014829993247986
      ],
      "type": "VEC3"
    },
    {
      "bufferView": 2,
      "byteOffset": 81516,
      "componentType": 5126,
      "count": 1671,
      "max": [
        1.0,
        1.0,
        1.0
      ],
      "min": [
        -1.0,
        -1.0,
        -1.0
      ],
      "type": "VEC3"
    },
    {
      "bufferView": 3,
      "byteOffset": 40976,
      "componentType": 5126,
      "count": 1671,
      "max": [
        1.0,
        1.0,
        1.0,
        1.0
      ],
      "min": [
        -1.0,
        -1.0,
        -1.0,
        -1.0
      ],
      "type": "VEC4"
    },
    {
      "bufferView": 1,
      "byteOffset": 20488,
      "componentType": 5126,
      "count": 1671,
      "max": [
        1.0,
        0.9166669845581055
      ],
      "min": [
        0.0,
        0.0
      ],
      "type": "VEC2"
    },
    {
      "bufferView": 0,
      "byteOffset": 59904,
      "componentType": 5125,
      "count": 9360,
      "type": "SCALAR"
    },
    {
      "bufferView": 2,
      "byteOffset": 101568,
      "componentType": 5126,
      "count": 449,
      "max": [
        7.116576194763184,
        7.116576194763184,
        10.015901565551758
      ],
      "min": [
        -7.116576194763184,
        -7.116576194763184,
        0.9989359974861145
      ],
      "type": "VEC3"
    },
    {
      "bufferView": 2,
      "byteOffset": 106956,
      "componentType": 5126,
      "count": 449,
      "max": [
        1.0,
        1.0,
        1.0
      ],
      "min": [
        -1.0,
        -1.0,
        -1.0
      ],
      "type": "VEC3"
    },
    {
      "bufferView": 1,
      "byteOffset": 33856,
      "componentType": 5126,
      "count": 449,
      "max": [
        1.0,
        0.6666669845581055
      ],
      "min": [
        0.0,
        0.0
      ],
      "type": "VEC2"
    },
    {
      "bufferView": 0,
      "byteOffset": 97344,
      "componentType": 5125,
      "count": 2448,
      "type": "SCALAR"
    },
    {
      "bufferView": 2,
      "byteOffset": 112344,
      "componentType": 5126,
      "count": 120,
      "max": [
        1.5827490091323853,
        1.5827490091323853,
        19.252975463867188
      ],
      "min": [
        -1.5827490091323853,
        -1.5827490091323853,
        15.299295425415039
      ],
      "type": "VEC3"
    },
    {
      "bufferView": 2,
      "byteOffset": 113784,
      "componentType": 5126,
      "count": 120,
      "max": [
        0.9961957335472107,
        0.9961957335472107,
        1.0
      ],
      "min": [
        -0.9961957335472107,
        -0.9961957335472107,
        -1.0
      ],
      "type": "VEC3"
    },
    {
      "bufferView": 3,
      "byteOffset": 67712,
      "componentType": 5126,
      "count": 120,
      "max": [
        1.0,
        0.9999697804450989,
        0.48260316252708435,
        1.0
      ],
      "min": [
        -0.8647723197937012,
        -0.9999697804450989,
        -0.4826030731201172,
        1.0
      ],
      "type": "VEC4"
    },
    {
      "bufferView": 1,
      "byteOffset": 37448,
      "componentType": 5126,
      "count": 120,
      "max": [
        0.9980080127716064,
        0.9199349880218506
      ],
      "min": [
        0.0019920000340789557,
        0.0018360000103712082
      ],
      "type": "VEC2"
    },
    {
      "bufferView": 0,
      "byteOffset": 107136,
      "componentType": 5125,
      "count": 432,
      "type": "SCALAR"
    },
    {
      "bufferView": 2,
      "byteOffset": 115224,
      "componentType": 5126,
      "count": 1002,
      "max": [
        1.4455469846725464,
        2.8599069118499756,
        9.514573097229004
      ],
      "min": [
        -1.7919540405273438,
        -2.633716106414795,
        3.821605920791626
      ],
      "type": "VEC3"
    },
    {
      "bufferView": 2,
      "byteOffset": 127248,
      "componentType": 5126,
      "count": 1002,
      "max": [
        1.0,
        1.0,
        1.0
      ],
      "min": [
        -1.0,
        -1.0,
        -1.0
      ],
      "type": "VEC3"
    },
    {
      "bufferView": 1,
      "byteOffset": 38408,
      "componentType": 5126,
      "count": 1002,
      "max": [
        1.0,
        1.0
      ],
      "min": [
        0.0,
        0.0
      ],
      "type": "VEC2"
    },
    {
      "bufferView": 0,
      "byteOffset": 108864,
      "componentType": 5125,
      "count": 4752,
      "type": "SCALAR"
    }
  ],
  "asset": {
    "extras": {
      "author": "berzerkey (https://sketchfab.com/berzerkey)",
      "license": "CC-BY-4.0 (http://creativecommons.org/licenses/by/4.0/)",
      "source": "https://sketchfab.com/3d-models/mana-potion-c8401d47d915441cbdb343e1dbfa6c25",
      "title": "Mana Potion"
    },
    "generator": "Sketchfab-12.68.0",
    "version": "2.0"
  },
  "bufferViews": [
    {
      "buffer": 0,
      "byteLength": 127872,
      "name": "floatBufferViews",
      "target": 34963
    },
    {
      "buffer": 0,
      "byteLength": 46424,
      "byteOffset": 127872,
      "byteStride": 8,
      "name": "floatBufferViews",
      "target": 34962
    },
    {
      "buffer": 0,
      "byteLength": 139272,
      "byteOffset": 174296,
      "byteStride": 12,
      "name": "floatBufferViews",
      "target": 34962
    },
    {
      "buffer": 0,
      "byteLength": 69632,
      "byteOffset": 313568,
      "byteStride": 16,
      "name": "floatBufferViews",
      "target": 34962
    }
  ],
  "buffers": [
    {
      "byteLength": 383200,
      "uri": "scene.bin"
    }
  ],
  "extensionsUsed": [
    "KHR_materials_transmission"
  ],
  "images": [
    {
      "uri": "textures/CorkMat_baseColor.png"
    },
    {
      "uri": "textures/CorkMat_metallicRoughness.png"
    },
    {
      "uri": "textures/CorkMat_normal.png"
    },
    {
      "uri": "textures/GlassMat_metallicRoughness.png"
    },
    {
      "uri": "textures/GlassMat_normal.png"
    },
    {
      "uri": "textures/Metal_Frame_baseColor.png"
    },
    {
      "uri": "textures/Metal_Frame_metallicRoughness.png"
    },
    {
      "uri": "textures/Metal_Frame_normal.png"
    }
  ],
  "materials": [
    {
      "doubleSided": true,
      "name": "CorkMat",
      "normalTexture": {
        "index": 2
      },
      "pbrMetallicRoughness": {
        "baseColorTexture": {
          "index": 0
        },
        "metallicFactor": 0.0,
        "metallicRoughnessTexture": {
          "index": 1
        }
      }
    },
    {
      "alphaMode": "BLEND",
      "doubleSided": true,
      "extensions": {
        "KHR_materials_transmission": {
          "transmissionFactor": 1.0
        }
      },
      "name": "GlassMat",
      "normalTexture": {
        "index": 4
      },
      "pbrMetallicRoughness": {
        "baseColorFactor": [
          1.0,
          1.0,
          1.0,
          0.25
        ],
        "metallicFactor": 0.0,
        "metallicRoughnessTexture": {
          "index": 3
        }
      }
    },
    {
      "doubleSided": true,
      "name": "Metal_Frame",
      "normalTexture": {
        "index": 7
      },
      "pbrMetallicRoughness": {
        "baseColorTexture": {
          "index": 5
        },
        "metallicRoughnessTexture": {
          "index": 6
        }
      }
    },
    {
      "alphaMode": "BLEND",
      "doubleSided": true,
      "emissiveFactor": [
        0.0,
        0.15102091487903252,
        0.8098323170731707
      ],
      "name": "aiStandardSurface1SG",
      "pbrMetallicRoughness": {
        "baseColorFactor": [
          0.0,
          0.3206165176906652,
          1.0,
          0.5992759146341463
        ],
        "roughnessFactor": 0.2700076219512195
      }
    },
    {
      "alphaMode": "BLEND",
      "doubleSided": true,
      "emissiveFactor": [
        1.0,
        1.0,
        1.0
      ],
      "name": "aiStandardSurface2SG",
      "pbrMetallicRoughness": {
        "baseColorFactor": [
          0.0,
          0.0,
          0.0,
          0.24561737804878048
        ],
        "roughnessFactor": 0.0
      }
    }
  ],
  "meshes": [
    {
      "name": "Object_0",
      "primitives": [
        {
          "attributes": {
            "NORMAL": 1,
            "POSITION": 0,
            "TANGENT": 2,
            "TEXCOORD_0": 3
          },
          "indices": 4,
          "material": 2,
          "mode": 4
        }
      ]
    },
    {
      "name": "Object_1",
      "primitives": [
        {
          "attributes": {
            "NORMAL": 6,
            "POSITION": 5,
            "TANGENT": 7,
            "TEXCOORD_0": 8
          },
          "indices": 9,
          "material": 1,
          "mode": 4
        }
      ]
    },
    {
      "name": "Object_2",
      "primitives": [
        {
          "attributes": {
            "NORMAL": 11,
            "POSITION": 10,
            "TEXCOORD_0": 12
          },
          "indices": 13,
          "material": 3,
          "mode": 4
        }
      ]
    },
    {
      "name": "Object_3",
      "primitives": [
        {
          "attributes": {
            "NORMAL": 15,
            "POSITION": 14,
            "TANGENT": 16,
            "TEXCOORD_0": 17
          },
          "indices": 18,
          "material": 0,
          "mode": 4
        }
      ]
    },
    {
      "name": "Object_4",
      "primitives": [
        {
          "attributes": {
            "NORMAL": 20,
            "POSITION": 19,
            "TEXCOORD_0": 21
          },
          "indices": 22,
          "material": 4,
          "mode": 4
        }
      ]
    }
  ],
  "nodes": [
    {
      "children": [
        1
      ],
      "matrix": [
        1.0,
        0.0,
        0.0,
        0.0,
        0.0,
        2.220446049250313e-16,
        -1.0,
        0.0,
        0.0,
        1.0,
        2.220446049250313e-16,
        0.0,
        0.0,
        0.0,
        0.0,
        1.0
      ],
      "name": "Sketchfab_model"
    },
    {
      "children": [
        2,
        3,
        4,
        5,
        6
      ],
      "name": "potion_lp.obj.cleaner.materialmerger.gles"
    },
    {
      "mesh": 0,
      "name": "Object_2"
    },
    {
      "mesh": 1,
      "name": "Object_3"
    },
    {
      "mesh": 2,
      "name": "Object_4"
    },
    {
      "mesh": 3,
      "name": "Object_5"
    },
    {
      "mesh": 4,
      "name": "Object_6"
    }
  ],
  "samplers": [
    {
      "magFilter": 9729,
      "minFilter": 9987,
      "wrapS": 10497,
      "wrapT": 10497
    }
  ],
  "scene": 0,
  "scenes": [
    {
      "name": "Sketchfab_Scene",
      "nodes": [
        0
      ]
    }
  ],
  "textures": [
    {
      "sampler": 0,
      "source": 0
    },
    {
      "sampler": 0,
      "source": 1
    },
    {
      "sampler": 0,
      "source": 2
    },
    {
      "sampler": 0,
      "source": 3
    },
    {
      "sampler": 0,
      "source": 4
    },
    {
      "sampler": 0,
      "source": 5
    },
    {
      "sampler": 0,
      "source": 6
    },
    {
      "sampler": 0,
      "source": 7
    }
  ]
}
