{
  "accessors": [
    {
      "bufferView": 1,
      "componentType": 5126,
      "count": 7164,
      "max": [
        -0.06589633226394653,
        16.24725341796875,
        3.412574291229248
      ],
      "min": [
        -37.32754898071289,
        -16.24725341796875,
        -2.482013702392578
      ],
      "type": "VEC3"
    },
    {
      "bufferView": 1,
      "byteOffset": 85968,
      "componentType": 5126,
      "count": 7164,
      "max": [
        1.0,
        0.9991562962532043,
        0.9963276982307434
      ],
      "min": [
        -0.995621383190155,
        -0.9991562962532043,
        -0.9996035695075989
      ],
      "type": "VEC3"
    },
    {
      "bufferView": 0,
      "componentType": 5125,
      "count": 10800,
      "type": "SCALAR"
    }
  ],
  "asset": {
    "extras": {
      "author": "JrMadMan (https://sketchfab.com/JrMadMan)",
      "license": "CC-BY-4.0 (http://creativecommons.org/licenses/by/4.0/)",
      "source": "https://sketchfab.com/3d-models/player-scale-reference-3bb0febfbd8942f0a4676fa554addf24",
      "title": "Player Scale Reference"
    },
    "generator": "Sketchfab-12.68.0",
    "version": "2.0"
  },
  "bufferViews": [
    {
      "buffer": 0,
      "byteLength": 43200,
      "name": "floatBufferViews",
      "target": 34963
    },
    {
      "buffer": 0,
      "byteLength": 171936,
      "byteOffset": 43200,
      "byteStride": 12,
      "name": "floatBufferViews",
      "target": 34962
    }
  ],
  "buffers": [
    {
      "byteLength": 215136,
      "uri": "scene.bin"
    }
  ],
  "materials": [
    {
      "doubleSided": true,
      "name": "Scene_-_Root",
      "pbrMetallicRoughness": {
        "metallicFactor": 0.0,
        "roughnessFactor": 0.6
      }
    }
  ],
  "meshes": [
    {
      "name": "Plane__0",
      "primitives": [
        {
          "attributes": {
            "NORMAL": 1,
            "POSITION": 0
          },
          "indices": 2,
          "material": 0,
          "mode": 4
        }
      ]
    }
  ],
  "nodes": [
    {
      "children": [
        1
      ],
      "matrix": [
        1.0,
        0.0,
        0.0,
        0.0,
        0.0,
        2.220446049250313e-16,
        -1.0,
        0.0,
        0.0,
        1.0,
        2.220446049250313e-16,
        0.0,
        0.0,
        0.0,
        0.0,
        1.0
      ],
      "name": "Sketchfab_model"
    },
    {
      "children": [
        2
      ],
      "matrix": [
        1.0,
        0.0,
        0.0,
        0.0,
        0.0,
        0.0,
        1.0,
        0.0,
        0.0,
        -1.0,
        0.0,
        0.0,
        0.0,
        0.0,
        0.0,
        1.0
      ],
      "name": "2a069f9329f74f1586839218c1e31912.fbx"
    },
    {
      "children": [
        3
      ],
      "name": "RootNode"
    },
    {
      "children": [
        4
      ],
      "matrix": [
        1.0468291136943296e-06,
        -5.376427650451559,
        -1.0804209858652195e-14,
        0.0,
        5.376427650451543,
        1.0468291136943296e-06,
        -4.0590900390707143e-07,
        0.0,
        4.059090039070659e-07,
        6.82291912671515e-14,
        5.376427650451645,
        0.0,
        -100.0,
        0.0,
        5.9604644775390625e-06,
        1.0
      ],
      "name": "Plane"
    },
    {
      "mesh": 0,
      "name": "Plane__0"
    }
  ],
  "scene": 0,
  "scenes": [
    {
      "name": "Sketchfab_Scene",
      "nodes": [
        0
      ]
    }
  ]
}
